<?xml version="1.0" encoding="UTF-8"?>
<svg width="250px" height="251px" viewBox="0 0 250 251" version="1.1" xmlns="http://www.w3.org/2000/svg" xmlns:xlink="http://www.w3.org/1999/xlink">
    <!-- Generator: Sketch 42 (36781) - http://www.bohemiancoding.com/sketch -->
    <title>Untitled 3</title>
    <desc>Created with Sketch.</desc>
    <defs></defs>
    <g id="Page-1" stroke="none" stroke-width="1" fill="none" fill-rule="evenodd">
        <g id="fullstack" transform="translate(0.000000, 1.000000)" fill-rule="nonzero">
            <g id="Page-1">
                <g id="58">
                    <path d="M0.0216976687,125 C0.0216976687,194.035594 55.9763896,250 125,250 C194.02361,250 249.978302,194.035594 249.978302,125 C249.978302,55.9644063 194.02361,-3.36005908e-15 125,-7.65404249e-15 C55.9763896,-1.19480259e-14 0.0216976687,55.9644063 0.0216976687,125 L0.0216976687,125 Z" id="Shape"></path>
                    <path d="M207.393103,71.8408262 C207.393103,67.436209 203.844336,63.9428918 199.369805,63.9428918 L51.4016664,63.9428918 C46.9271347,63.9428918 43.3783681,67.436209 43.3783681,71.8408262 L43.3783681,81.5613608 L207.238809,81.5613608 L207.238809,71.8408262 L207.393103,71.8408262 Z" id="Shape" fill="#F2F2F2"></path>
                    <path d="M43.5326622,81.7132441 L43.5326622,187.424058 C43.5326622,191.828676 47.0814288,195.321993 51.5559606,195.321993 L199.524099,195.321993 C203.99863,195.321993 207.547397,191.828676 207.547397,187.424058 L207.547397,81.7132441 L43.5326622,81.7132441 Z" id="Shape" fill="#4A5662"></path>
                    <path d="M52.4817257,74.7266099 C52.4817256,75.7033384 53.0110752,76.6058729 53.8703735,77.0942372 C54.7296717,77.5826015 55.7883709,77.5826015 56.6476692,77.0942372 C57.5069675,76.6058729 58.036317,75.7033384 58.036317,74.7266099 C58.036317,73.2167184 56.7928794,71.9927095 55.2590213,71.9927095 C53.7251633,71.9927095 52.4817257,73.2167184 52.4817257,74.7266099 L52.4817257,74.7266099 Z" id="Shape" fill="#71BFB0"></path>
                    <path d="M62.8194373,74.7266099 C62.8194373,76.2365014 64.0628749,77.4605103 65.5967329,77.4605103 C67.1305909,77.4605103 68.3740285,76.2365014 68.3740285,74.7266099 C68.3740285,73.2167184 67.1305909,71.9927095 65.5967329,71.9927095 C64.0628749,71.9927095 62.8194373,73.2167184 62.8194373,74.7266099 Z" id="Shape" fill="#EE4235"></path>
                    <path d="M75.9344442,74.7266099 C75.9344442,76.2365014 77.1778818,77.4605103 78.7117398,77.4605103 C80.2455979,77.4605103 81.4890355,76.2365014 81.4890355,74.7266099 C81.4890355,73.2167184 80.2455979,71.9927095 78.7117398,71.9927095 C77.1778818,71.9927095 75.9344442,73.2167184 75.9344442,74.7266099 Z" id="Shape" fill="#FE9F49"></path>
                    <polygon id="Shape" fill="#DFDFDF" points="177.15144 95.2308628 177.15144 91.1300122 168.35667 97.0534629 168.35667 98.4204131 172.368319 98.4204131"></polygon>
                    <polygon id="Shape" fill="#FFFFFF" points="172.368319 98.4204131 168.35667 98.4204131 168.35667 99.7873633 177.15144 105.710814 177.15144 101.761847 172.214025 98.4204131"></polygon>
                    <polygon id="Shape" fill="#DFDFDF" points="200.141276 97.0534629 191.346506 91.1300122 191.346506 95.2308628 195.975332 98.4204131 200.141276 98.4204131"></polygon>
                    <polygon id="Shape" fill="#FFFFFF" points="195.975332 98.4204131 196.129626 98.4204131 191.346506 101.761847 191.346506 105.710814 200.141276 99.7873633 200.141276 98.4204131"></polygon>
                    <polygon id="Shape" fill="#F5F5F5" points="185.483327 88.5479951 179.311559 107.381531 183.168914 107.077764 188.723505 88.3961118"></polygon>
                    <path d="M68.3740285,101.609964 C68.3740285,102.673147 63.7452026,103.584447 58.1906111,103.584447 C52.6360196,103.584447 48.0071939,102.673147 48.0071939,101.609964 C48.0071939,100.54678 52.6360198,99.63548 58.1906111,99.63548 C63.7452024,99.63548 68.3740283,100.394897 68.3740285,101.609964 Z" id="Shape" fill="#EE4235"></path>
                    <path d="M71.3056183,111.330498 C71.3056183,112.393682 67.9111458,113.304982 63.7452024,113.304982 C59.5792589,113.304981 56.1847865,112.393682 56.1847867,111.330498 C56.1847867,110.267315 59.5792592,109.356015 63.7452024,109.356015 C67.9111458,109.204131 71.3056183,110.115431 71.3056183,111.330498 Z" id="Shape" fill="#A7A8AA"></path>
                    <path d="M62.9737314,121.202916 C62.9737314,122.2661 59.5792589,123.1774 55.4133155,123.1774 C51.247372,123.177399 47.8528996,122.2661 47.8528998,121.202916 C47.8528998,120.139733 51.2473723,119.228433 55.4133155,119.228433 C59.5792589,119.076549 62.9737314,120.139733 62.9737314,121.202916 Z M70.5341473,130.619684 C70.5341473,131.682868 65.4424387,132.594168 59.2706706,132.594168 C53.0989025,132.594168 48.0071939,131.682868 48.0071939,130.619684 C48.0071939,129.5565 53.0989025,128.6452 59.2706706,128.6452 C65.4424387,128.493317 70.5341473,129.404617 70.5341473,130.619684 Z" id="Shape" fill="#EE4235"></path>
                    <path d="M74.5457964,140.340219 C74.5457964,141.403402 69.9169705,142.314702 64.3623792,142.314702 C58.8077879,142.314702 54.1789621,141.403402 54.1789621,140.340219 C54.1789621,139.277035 58.8077879,138.365735 64.3623792,138.365735 C69.9169705,138.365735 74.5457964,139.277035 74.5457964,140.340219 L74.5457964,140.340219 Z" id="Shape" fill="#A9AAAB"></path>
                    <path d="M95.5298078,140.340219 C95.5298078,141.403402 92.4439239,142.314702 88.5865687,142.314702 C84.7292135,142.314702 81.6433296,141.403402 81.6433296,140.340219 C81.6433296,139.277035 84.7292135,138.365735 88.5865687,138.365735 C92.4439239,138.365735 95.5298078,139.277035 95.5298078,140.340219 Z M127.777296,140.340219 C127.777296,141.403402 122.685587,142.314702 116.513819,142.314702 C110.342051,142.314702 105.250342,141.403402 105.250342,140.340219 C105.250342,139.277035 110.342051,138.365735 116.513819,138.365735 C122.685587,138.365735 127.777296,139.277035 127.777296,140.340219 Z M76.7059152,149.756987 C76.7059152,150.82017 71.6142066,151.73147 65.4424387,151.73147 C59.2706709,151.73147 54.1789621,150.82017 54.1789621,149.756987 C54.1789621,148.693803 59.2706706,147.782503 65.4424387,147.782503 C71.6142068,147.63062 76.7059154,148.693803 76.7059152,149.756987 Z" id="Shape" fill="#EAEAEB"></path>
                    <path d="M94.14116,149.756987 C94.14116,150.82017 91.2095702,151.73147 87.6608036,151.73147 C84.112037,151.73147 81.1804472,150.82017 81.1804472,149.756987 C81.1804472,148.693803 84.112037,147.782503 87.6608036,147.782503 C91.2095702,147.782503 94.14116,148.693803 94.14116,149.756987 Z" id="Shape" fill="#A9AAAB"></path>
                    <path d="M113.890817,149.756987 C113.890817,150.82017 110.959228,151.73147 107.410461,151.73147 C103.861694,151.73147 100.930105,150.82017 100.930105,149.756987 C100.930105,148.693803 103.861694,147.782503 107.410461,147.782503 C110.959228,147.63062 113.890817,148.693803 113.890817,149.756987 Z" id="Shape" fill="#EAEAEB"></path>
                    <path d="M76.7059152,161.300122 C76.7059152,162.363305 71.6142066,163.274605 65.4424387,163.274605 C59.2706709,163.274605 54.1789621,162.363305 54.1789621,161.300122 C54.1789621,160.236938 59.2706706,159.325638 65.4424387,159.325638 C71.6142068,159.325638 76.7059154,160.236938 76.7059152,161.300122 Z" id="Shape" fill="#9CBCC5"></path>
                    <path d="M66.6767922,173.602673 C66.6767922,174.665857 63.1280255,175.577157 58.8077879,175.577157 C54.4875503,175.577157 50.9387837,174.665857 50.9387837,173.602673 C50.9387837,172.53949 54.4875503,171.628189 58.8077879,171.628189 C63.1280255,171.628189 66.6767922,172.53949 66.6767922,173.602673 Z" id="Shape" fill="#EE4235"></path>
                    <path d="M94.14116,161.300122 C94.14116,162.363305 91.2095702,163.274605 87.6608036,163.274605 C84.112037,163.274605 81.1804472,162.363305 81.1804472,161.300122 C81.1804472,160.236938 84.112037,159.325638 87.6608036,159.325638 C91.2095702,159.325638 94.14116,160.236938 94.14116,161.300122 Z" id="Shape" fill="#EAEAEB"></path>
                    <path d="M113.890817,161.300122 C113.890817,162.363305 110.959228,163.274605 107.410461,163.274605 C103.861694,163.274605 100.930105,162.363305 100.930105,161.300122 C100.930105,160.236938 103.861694,159.325638 107.410461,159.325638 C110.959228,159.325638 113.890817,160.236938 113.890817,161.300122 Z" id="Shape" fill="#EE4235"></path>
                    <path d="M92.9068063,111.330498 C92.9068063,112.393682 89.5123338,113.304982 85.3463904,113.304982 C81.1804469,113.304981 77.7859745,112.393682 77.7859747,111.330498 C77.7859747,110.267315 81.1804472,109.356015 85.3463904,109.356015 C89.5123336,109.356015 92.9068063,110.115431 92.9068063,111.330498 Z M110.804934,111.330498 C110.804934,112.393682 108.490521,113.304982 105.558931,113.304982 C102.781635,113.304982 100.312928,112.393682 100.312928,111.330498 C100.312928,110.267315 102.627341,109.356015 105.558931,109.356015 C108.490521,109.204131 110.804934,110.115431 110.804934,111.330498 Z" id="Shape" fill="#EAEAEB"></path>
                    <path d="M129.937414,111.330498 C129.937414,112.393682 128.240178,113.304982 126.234354,113.304982 C124.228529,113.304982 122.531293,112.393682 122.531293,111.330498 C122.531293,110.267315 124.228529,109.356015 126.234354,109.356015 C128.240178,109.204131 129.937414,110.115431 129.937414,111.330498 Z" id="Shape" fill="#A9AAAB"></path>
                </g>
            </g>
        </g>
    </g>
</svg>