<?xml version="1.0" encoding="UTF-8"?>
<svg width="1109px" height="1109px" viewBox="0 0 1109 1109" version="1.1" xmlns="http://www.w3.org/2000/svg" xmlns:xlink="http://www.w3.org/1999/xlink">
    <!-- Generator: Sketch 42 (36781) - http://www.bohemiancoding.com/sketch -->
    <title>Untitled 2</title>
    <desc>Created with Sketch.</desc>
    <defs></defs>
    <g id="Page-1" stroke="none" stroke-width="1" fill="none" fill-rule="evenodd">
        <g id="responsive" fill-rule="nonzero">
            <g id="Page-1">
                <circle id="Oval" cx="554.5" cy="554.5" r="554.5"></circle>
                <g id="72" transform="translate(154.000000, 262.000000)">
                    <path d="M0.299805,563.657772 C0.299802867,567.203488 76.67384,570.479865 200.652555,572.252724 C324.631271,574.025582 477.379347,574.025582 601.358063,572.252724 C725.336778,570.479865 801.710815,567.203488 801.710813,563.657772 C801.710813,558.17657 622.308848,553.733177 401.005309,553.733177 C179.70177,553.733177 0.299805,558.17657 0.299805,563.657772 L0.299805,563.657772 Z" id="Shape" fill="#000000"></path>
                    <path d="M510.175849,550.631741 L290.594195,550.631741 C310.443384,538.846285 304.240512,538.846285 308.582522,515.895661 L308.582522,442.081489 L485.984649,442.081489 C485.984649,518.376809 480.402065,538.225998 510.175849,550.631741 Z" id="Shape" fill="#C7C7C7"></path>
                    <path d="M304.860799,465.652401 L503.35269,550.631741 C503.35269,550.631741 484.123788,532.643413 484.123788,513.414512 L484.123788,450.765509 C432.019667,402.383111 304.860799,465.652401 304.860799,465.652401 L304.860799,465.652401 Z" id="Shape" fill="#6E6E6E"></path>
                    <path d="M716.111185,445.182925 C716.111185,459.44953 704.946016,470.614698 690.679412,470.614698 L110.090632,470.614698 C95.824027,470.614698 84.658859,459.449529 84.658858,445.182925 L84.658858,78.593214 L715.490898,78.593214 L715.490898,445.182925 L716.111185,445.182925 Z" id="Shape" fill="#D4D4D4"></path>
                    <path d="M716.111185,391.838229 L85.279145,391.838229 L85.279145,25.868806 C85.279145,11.602201 96.444314,0.437033 110.710919,0.437032 L691.299699,0.437032 C705.566304,0.437032 716.731472,11.602201 716.731472,25.868806 L716.731472,391.838229 L716.111185,391.838229 Z" id="Shape" fill="#3F3F3F"></path>
                    <polygon id="Shape" fill="#3498DD" points="109.470345 35.173113 691.919986 35.173113 691.919986 357.722435 109.470345 357.722435"></polygon>
                    <polygon id="Shape" fill="#34A6DD" points="693.16056 36.413688 108.850057 36.413688 108.850057 73.630917 110.090632 73.630917 110.090632 86.03666 691.919986 86.03666 691.919986 73.630917 693.16056 73.630917"></polygon>
                    <path d="M381.776407,430.91632 C381.774866,437.565565 385.32131,443.71038 391.079469,447.035448 C396.837627,450.360516 403.932416,450.360516 409.690574,447.035448 C415.448733,443.71038 418.995177,437.565565 418.993636,430.91632 C418.995177,424.267075 415.448733,418.12226 409.690574,414.797192 C403.932416,411.472124 396.837627,411.472124 391.079469,414.797192 C385.32131,418.12226 381.774866,424.267075 381.776407,430.91632 L381.776407,430.91632 Z" id="Shape" fill="#7B716B"></path>
                    <path d="M529.40475,559.936049 L264.542134,559.936049 C264.542134,550.011454 272.605867,541.327434 283.150749,541.327434 L511.416423,541.327434 C521.341018,541.947721 529.404751,550.011454 529.40475,559.936049 L529.40475,559.936049 Z" id="Shape" fill="#BFBFBF"></path>
                    <polygon id="Shape" fill="#348CDD" points="134.281831 115.810444 374.953248 115.810444 374.953248 310.580611 134.281831 310.580611"></polygon>
                    <path d="M170.878773,151.787099 L170.878773,274.603956 L338.356306,274.603956 L338.356306,151.787099 L170.878773,151.787099 Z M178.942506,162.331981 L330.292573,162.331981 L330.292573,264.059075 L326.57085,264.059075 L297.417353,228.082419 L276.32759,254.754767 L238.490073,208.23323 L194.449685,263.438787 L206.235141,264.059075 L178.942506,264.059075 L178.942506,162.331981 Z" id="Shape" fill="#FFFEFF"></path>
                    <path d="M190.107675,196.447774 C190.107675,202.614127 195.106491,207.612943 201.272844,207.612943 C207.439197,207.612943 212.438013,202.614127 212.438013,196.447774 C212.438013,190.281421 207.439197,185.282605 201.272844,185.282605 C195.106491,185.282605 190.107675,190.281421 190.107675,196.447774 L190.107675,196.447774 Z" id="Shape" fill="#FFFEFF"></path>
                    <path d="M421.474785,118.291592 L666.488212,118.291592 L666.488212,125.735038 L421.474785,125.735038 L421.474785,118.291592 Z M421.474785,153.64796 L666.488212,153.64796 L666.488212,161.091406 L421.474785,161.091406 L421.474785,153.64796 Z M443.805123,189.004328 L644.157875,189.004328 L644.157875,196.447774 L443.805123,196.447774 L443.805123,189.004328 Z M456.210866,224.360696 L631.131844,224.360696 L631.131844,231.804142 L456.210866,231.804142 L456.210866,224.360696 Z M456.210866,259.717064 L631.131844,259.717064 L631.131844,267.16051 L456.210866,267.16051 L456.210866,259.717064 Z" id="Shape" fill="#FFFEFF"></path>
                    <polygon id="Shape" fill="#FEBD49" points="495.288957 287.009699 592.674041 287.009699 592.674041 309.340037 495.288957 309.340037"></polygon>
                    <path d="M123.736949,59.9846 C123.735823,63.5310665 125.627194,66.8086183 128.698337,68.5821766 C131.769479,70.3557349 135.553608,70.3557349 138.62475,68.5821766 C141.695893,66.8086183 143.587264,63.5310665 143.586138,59.9846 C143.587264,56.4381335 141.695893,53.1605817 138.62475,51.3870234 C135.553608,49.6134651 131.769479,49.6134651 128.698337,51.3870234 C125.627194,53.1605817 123.735823,56.4381335 123.736949,59.9846 Z" id="Shape" fill="#FFFFFF"></path>
                    <path d="M165.916476,59.9846 C165.91535,63.5310665 167.806721,66.8086183 170.877864,68.5821766 C173.949006,70.3557349 177.733135,70.3557349 180.804277,68.5821766 C183.87542,66.8086183 185.766791,63.5310665 185.765665,59.9846 C185.766791,56.4381335 183.87542,53.1605817 180.804277,51.3870234 C177.733135,49.6134651 173.949006,49.6134651 170.877864,51.3870234 C167.806721,53.1605817 165.91535,56.4381335 165.916476,59.9846 Z" id="Shape" fill="#EE4235"></path>
                    <path d="M207.475716,59.9846 C207.47459,63.5310665 209.365961,66.8086183 212.437104,68.5821766 C215.508246,70.3557349 219.292375,70.3557349 222.363517,68.5821766 C225.43466,66.8086183 227.326031,63.5310665 227.324905,59.9846 C227.326031,56.4381335 225.43466,53.1605817 222.363517,51.3870234 C219.292375,49.6134651 215.508246,49.6134651 212.437104,51.3870234 C209.365961,53.1605817 207.47459,56.4381335 207.475716,59.9846 Z" id="Shape" fill="#FE9F49"></path>
                    <path d="M793.026793,557.4549 C793.026793,563.037484 788.064496,567.999782 782.481911,567.999782 L534.367048,567.999782 C528.784464,567.999782 523.822166,563.037485 523.822166,557.4549 L523.822166,234.285291 C523.822166,229.322994 527.543889,225.601271 532.506186,225.601271 L784.342772,225.601271 C789.305069,225.601271 793.026792,229.322994 793.026793,234.285291 L793.026793,557.4549 Z" id="Shape" fill="#E0E0E0"></path>
                    <polygon id="Shape" fill="#3498DD" points="550.494514 252.273619 766.354445 252.273619 766.354445 532.643414 550.494514 532.643414"></polygon>
                    <path d="M648.499885,549.391167 C648.498759,552.937633 650.39013,556.215185 653.461273,557.988744 C656.532415,559.762302 660.316544,559.762302 663.387686,557.988744 C666.458829,556.215185 668.3502,552.937633 668.349074,549.391167 C668.3502,545.844701 666.458829,542.567149 663.387686,540.79359 C660.316544,539.020032 656.532415,539.020032 653.461273,540.79359 C650.39013,542.567149 648.498759,545.844701 648.499885,549.391167 L648.499885,549.391167 Z" id="Shape" fill="#808080"></path>
                    <polygon id="Shape" fill="#6E6E6E" points="175.220783 294.453145 282.530462 469.374124 164.675902 471.234985"></polygon>
                    <path d="M185.145378,566.13892 C185.145378,576.063515 177.081645,584.747535 166.536763,584.747535 L57.986511,584.747535 C48.061916,584.747535 39.377896,576.683802 39.377896,566.13892 L39.377896,311.821186 C39.377896,301.896591 47.441629,293.212571 57.986511,293.212571 L167.15705,293.212571 C177.081645,293.212571 185.765665,301.276304 185.765665,311.821186 L185.765665,566.13892 L185.145378,566.13892 Z" id="Shape" fill="#E0E0E0"></path>
                    <polygon id="Shape" fill="#3498DD" points="51.783639 334.151523 172.739635 334.151523 172.739635 545.669444 51.783639 545.669444"></polygon>
                    <path d="M101.406612,563.037485 C101.405418,567.027211 103.533226,570.714382 106.988231,572.709589 C110.443237,574.704797 114.700324,574.704797 118.15533,572.709589 C121.610335,570.714382 123.738143,567.027211 123.736949,563.037485 C123.738143,559.047759 121.610335,555.360588 118.15533,553.365381 C114.700324,551.370173 110.443237,551.370173 106.988231,553.365381 C103.533226,555.360588 101.405418,559.047759 101.406612,563.037485 L101.406612,563.037485 Z" id="Shape" fill="#808080"></path>
                    <polygon id="Shape" fill="#808080" points="86.51972 318.644344 140.484703 318.644344 140.484703 324.847216 86.51972 324.847216"></polygon>
                    <polygon id="Shape" fill="#348CDD" points="581.508872 275.224243 738.441523 275.224243 738.441523 401.762824 581.508872 401.762824"></polygon>
                    <path d="M605.700071,298.795155 L605.700071,378.812199 L714.870611,378.812199 L714.870611,298.795155 L605.700071,298.795155 Z M610.662368,304.998027 L709.288026,304.998027 L709.288026,371.368753 L706.806878,371.368753 L687.577976,347.797841 L673.931658,365.165881 L649.120172,334.771811 L620.586963,370.748466 L628.030409,371.368753 L610.662368,371.368753 L610.662368,304.998027 L610.662368,304.998027 Z" id="Shape" fill="#FFFEFF"></path>
                    <path d="M618.105814,327.328365 C618.105814,331.439267 621.438358,334.771811 625.54926,334.771811 C629.660162,334.771811 632.992706,331.439267 632.992706,327.328365 C632.992706,323.217463 629.660162,319.884919 625.54926,319.884919 C621.438358,319.884919 618.105814,323.217463 618.105814,327.328365 Z" id="Shape" fill="#FFFEFF"></path>
                    <polygon id="Shape" fill="#348CDD" points="70.392254 350.278989 164.675902 350.278989 164.675902 426.57431 70.392254 426.57431"></polygon>
                    <path d="M85.279145,364.545594 L85.279145,412.307705 L151.029584,412.307705 L151.029584,364.545594 L85.279145,364.545594 Z M88.380581,368.267317 L147.307861,368.267317 L147.307861,407.965695 L146.067287,407.965695 L134.902118,393.699091 L126.838385,404.243972 L111.951493,386.255645 L94.583453,407.965695 L98.925463,407.965695 L88.380581,407.965695 L88.380581,368.267317 Z" id="Shape" fill="#FFFEFF"></path>
                    <path d="M92.722591,381.913635 C92.7225909,383.464886 93.5501734,384.898301 94.8935961,385.673927 C96.2370189,386.449552 97.8921841,386.449552 99.2356069,385.673927 C100.57903,384.898301 101.406612,383.464886 101.406612,381.913635 C101.406612,380.362384 100.57903,378.928969 99.2356069,378.153343 C97.8921841,377.377718 96.2370189,377.377718 94.8935961,378.153343 C93.5501734,378.928969 92.7225909,380.362384 92.722591,381.913635 Z" id="Shape" fill="#FFFEFF"></path>
                    <path d="M584.610308,422.2323 L649.120172,422.2323 L649.120172,425.333736 L584.610308,425.333736 L584.610308,422.2323 Z M584.610308,436.498904 L649.120172,436.498904 L649.120172,439.60034 L584.610308,439.60034 L584.610308,436.498904 Z M584.610308,450.145222 L637.334716,450.145222 L637.334716,453.246658 L584.610308,453.246658 L584.610308,450.145222 Z M584.610308,464.411827 L630.511557,464.411827 L630.511557,467.513262 L584.610308,467.513262 L584.610308,464.411827 Z M584.610308,478.678431 L630.511557,478.678431 L630.511557,481.779867 L584.610308,481.779867 L584.610308,478.678431 Z M78.455987,440.840915 L142.965851,440.840915 L142.965851,443.94235 L78.455987,443.94235 L78.455987,440.840915 Z M78.455987,455.107519 L142.965851,455.107519 L142.965851,458.208955 L78.455987,458.208955 L78.455987,455.107519 Z M78.455987,468.753837 L131.180395,468.753837 L131.180395,471.855272 L78.455987,471.855272 L78.455987,468.753837 Z M78.455987,483.020441 L124.357236,483.020441 L124.357236,486.121877 L78.455987,486.121877 L78.455987,483.020441 Z M78.455987,497.287046 L124.357236,497.287046 L124.357236,500.388482 L78.455987,500.388482 L78.455987,497.287046 Z M668.349074,422.2323 L732.858938,422.2323 L732.858938,425.333736 L668.349074,425.333736 L668.349074,422.2323 Z M668.349074,436.498904 L732.858938,436.498904 L732.858938,439.60034 L668.349074,439.60034 L668.349074,436.498904 Z M668.349074,450.145222 L721.073482,450.145222 L721.073482,453.246658 L668.349074,453.246658 L668.349074,450.145222 Z M668.349074,464.411827 L714.250324,464.411827 L714.250324,467.513262 L668.349074,467.513262 L668.349074,464.411827 Z M668.349074,478.678431 L714.250324,478.678431 L714.250324,481.779867 L668.349074,481.779867 L668.349074,478.678431 Z" id="Shape" fill="#FFFEFF"></path>
                    <path d="M636.714429,501.629056 L691.919986,501.629056 L691.919986,514.655086 L636.714429,514.655086 L636.714429,501.629056 Z M77.215412,520.857958 L132.420969,520.857958 L132.420969,533.883988 L77.215412,533.883988 L77.215412,520.857958 Z M549.874227,252.273619 L765.734158,252.273619 L765.734158,269.021372 L549.874227,269.021372 L549.874227,252.273619 Z M52.403926,334.151523 L172.739635,334.151523 L172.739635,350.899277 L52.403926,350.899277 L52.403926,334.151523 Z" id="Shape" fill="#FEBD49"></path>
                </g>
            </g>
        </g>
    </g>
</svg>