<?xml version="1.0" encoding="UTF-8"?>
<svg width="250px" height="251px" viewBox="0 0 250 251" version="1.1" xmlns="http://www.w3.org/2000/svg" xmlns:xlink="http://www.w3.org/1999/xlink">
    <!-- Generator: Sketch 42 (36781) - http://www.bohemiancoding.com/sketch -->
    <title>Untitled</title>
    <desc>Created with Sketch.</desc>
    <defs></defs>
    <g id="Page-1" stroke="none" stroke-width="1" fill="none" fill-rule="evenodd">
        <g id="webapps" transform="translate(0.000000, 1.000000)" fill-rule="nonzero">
            <g id="Page-1">
                <g id="57">
                    <path d="M0.0216976687,125 C0.0216976687,194.035594 55.9763896,250 125,250 C194.02361,250 249.978302,194.035594 249.978302,125 C249.978302,55.9644063 194.02361,-3.36655546e-15 125,-7.66053887e-15 C55.9763896,-1.19545223e-14 0.0216976687,55.9644063 0.0216976687,125 L0.0216976687,125 Z" id="Shape"></path>
                    <path d="M50.9387837,197.90401 C50.9387837,199.246135 84.1661995,200.334143 125.154294,200.334143 C166.142389,200.334143 199.369805,199.246135 199.369805,197.90401 C199.369805,196.561884 166.142389,195.473876 125.154294,195.473876 C84.1661995,195.473876 50.9387837,196.561884 50.9387837,197.90401 L50.9387837,197.90401 Z" id="Shape" fill="#000000"></path>
                    <path d="M152.310073,194.714459 L97.6899266,194.714459 C102.627341,191.828676 101.084399,191.828676 102.164458,186.208991 L102.164458,168.134872 L146.2926,168.134872 C146.2926,186.816525 144.903952,191.676792 152.310073,194.714459 Z" id="Shape" fill="#C7C7C7"></path>
                    <path d="M101.238693,173.90644 L150.612837,194.714459 C150.612837,194.714459 145.829717,190.309842 145.829717,185.601458 L145.829717,170.261239 C132.869004,158.414338 101.238693,173.90644 101.238693,173.90644 L101.238693,173.90644 Z" id="Shape" fill="#6E6E6E"></path>
                    <path d="M203.535748,168.894289 C203.535748,172.387606 200.758452,175.121507 197.209686,175.121507 L52.7903142,175.121507 C49.2415476,175.121507 46.464252,172.387606 46.464252,168.894289 L46.464252,79.2831106 L203.381454,79.2831106 L203.381454,168.894289 L203.535748,168.894289 Z" id="Shape" fill="#D4D4D4"></path>
                    <path d="M203.535748,155.832321 L46.6185461,155.832321 L46.6185461,66.2211421 C46.6185461,62.727825 49.3958418,59.9939246 52.9446084,59.9939246 L197.36398,59.9939246 C200.912747,59.9939246 203.690042,62.727825 203.690042,66.2211421 L203.690042,155.832321 L203.535748,155.832321 Z" id="Shape" fill="#3F3F3F"></path>
                    <polygon id="Shape" fill="#FFFFFF" points="52.6360201 68.4993926 197.518274 68.4993926 197.518274 147.478736 52.6360201 147.478736"></polygon>
                    <polygon id="Shape" fill="#F2F2F2" points="197.826863 68.8031592 52.4817257 68.8031592 52.4817257 77.9161604 52.7903142 77.9161604 52.7903142 80.9538274 197.518274 80.9538274 197.518274 77.9161604 197.826863 77.9161604"></polygon>
                    <path d="M120.371174,165.400972 C120.371174,167.028853 121.253423,168.533077 122.685587,169.347018 C124.117751,170.160958 125.882249,170.160958 127.314413,169.347018 C128.746577,168.533077 129.628826,167.028853 129.628826,165.400972 C129.628826,162.884486 127.55643,160.844472 125,160.844472 C122.44357,160.844472 120.371174,162.884486 120.371174,165.400972 L120.371174,165.400972 Z" id="Shape" fill="#7B716B"></path>
                    <path d="M157.093194,196.99271 L91.2095702,196.99271 C91.2095702,194.562576 93.2153948,192.436209 95.8383961,192.436209 L152.618662,192.436209 C155.087369,192.588092 157.093194,194.562576 157.093194,196.99271 L157.093194,196.99271 Z M58.8077879,88.2442285 L118.673938,88.2442285 L118.673938,135.935602 L58.8077879,135.935602 L58.8077879,88.2442285 Z" id="Shape" fill="#BFBFBF"></path>
                    <path d="M67.9111458,97.0534629 L67.9111458,127.126367 L109.57058,127.126367 L109.57058,97.0534629 L67.9111458,97.0534629 Z M69.9169705,99.63548 L107.564755,99.63548 L107.564755,124.54435 L106.63899,124.54435 L99.3871627,115.735115 L94.14116,122.2661 L84.5749194,110.874848 L73.6200312,124.392467 L76.551621,124.54435 L69.7626763,124.54435 L69.7626763,99.63548 L69.9169705,99.63548 Z" id="Shape" fill="#FFFEFF"></path>
                    <path d="M72.6942661,107.989064 C72.6939696,108.965988 73.2232542,109.868827 74.0826742,110.357372 C74.9420943,110.845918 76.001029,110.845918 76.860449,110.357372 C77.719869,109.868827 78.2491537,108.965988 78.2488571,107.989064 C78.2491537,107.012141 77.719869,106.109302 76.860449,105.620756 C76.001029,105.132211 74.9420943,105.132211 74.0826742,105.620756 C73.2232542,106.109302 72.6939696,107.012141 72.6942661,107.989064 Z" id="Shape" fill="#FFFEFF"></path>
                    <path d="M130.246003,88.851762 L191.192212,88.851762 L191.192212,90.6743621 L130.246003,90.6743621 L130.246003,88.851762 Z M130.246003,97.509113 L191.192212,97.509113 L191.192212,99.3317131 L130.246003,99.3317131 L130.246003,97.509113 Z M135.800594,106.166464 L185.637621,106.166464 L185.637621,107.989064 L135.800594,107.989064 L135.800594,106.166464 Z M138.886478,114.823815 L182.397442,114.823815 L182.397442,116.646416 L138.886478,116.646416 L138.886478,114.823815 Z M138.886478,123.481167 L182.397442,123.481167 L182.397442,125.303767 L138.886478,125.303767 L138.886478,123.481167 Z" id="Shape" fill="#BFBFBF"></path>
                    <polygon id="Shape" fill="#71BFB0" points="148.607013 130.164034 172.831202 130.164034 172.831202 135.631835 148.607013 135.631835"></polygon>
                    <path d="M56.1847867,74.5747266 C56.1847867,75.9168523 57.2900645,77.0048601 58.6534938,77.0048601 C60.0169231,77.0048601 61.1222009,75.9168523 61.1222009,74.5747266 C61.1222009,73.2326009 60.0169231,72.144593 58.6534938,72.144593 C57.2900645,72.144593 56.1847867,73.2326009 56.1847867,74.5747266 Z" id="Shape" fill="#71BFB0"></path>
                    <path d="M66.6767922,74.5747266 C66.6767922,75.9168523 67.78207,77.0048602 69.1454994,77.0048602 C70.5089287,77.0048602 71.6142066,75.9168523 71.6142066,74.5747266 C71.6142066,73.2326008 70.5089287,72.1445929 69.1454994,72.1445929 C67.78207,72.1445929 66.6767922,73.2326008 66.6767922,74.5747266 Z" id="Shape" fill="#EE4235"></path>
                    <path d="M77.0145037,74.5747266 C77.0145037,75.9168523 78.1197816,77.0048602 79.4832109,77.0048602 C80.8466403,77.0048602 81.9519182,75.9168523 81.9519182,74.5747266 C81.9519182,73.7065234 81.4813853,72.9042706 80.7175646,72.470169 C79.9537439,72.0360674 79.012678,72.0360674 78.2488573,72.470169 C77.4850366,72.9042706 77.0145037,73.7065234 77.0145037,74.5747266 L77.0145037,74.5747266 Z" id="Shape" fill="#FE9F49"></path>
                </g>
            </g>
        </g>
    </g>
</svg>