<?xml version="1.0" encoding="UTF-8"?>
<svg width="1026px" height="1024px" viewBox="0 0 1026 1024" version="1.1" xmlns="http://www.w3.org/2000/svg" xmlns:xlink="http://www.w3.org/1999/xlink">
    <!-- Generator: Sketch 42 (36781) - http://www.bohemiancoding.com/sketch -->
    <title>Untitled 2</title>
    <desc>Created with Sketch.</desc>
    <defs></defs>
    <g id="Page-1" stroke="none" stroke-width="1" fill="none" fill-rule="evenodd">
        <g id="50" fill-rule="nonzero">
            <path d="M512,0 C229.216545,0 0,229.216545 0,512 C0,549.995134 4.360097,587.367397 12.457421,622.871046 C62.909976,852.087591 267.83455,1024 512.622871,1024 C757.411192,1024 961.712895,852.087591 1012.78832,622.871046 C1020.88564,587.367396 1025.24574,549.995134 1025.24574,512 C1024,229.216545 794.783455,0 512,0 L512,0 Z" id="Shape"></path>
            <path d="M322.024331,862.676399 C322.024331,862.676399 360.642336,887.591241 374.345499,860.807786 C388.048662,834.024331 377.459854,756.16545 390.540146,752.428224 C408.603406,747.445256 426.043796,735.610706 435.386861,708.827251 C457.810219,644.048662 442.238443,491.445256 442.238443,491.445255 L415.454988,455.318735 L307.075426,485.839416 L262.22871,571.172749 L276.554745,714.43309 L322.024331,862.676399 L322.024331,862.676399 Z" id="Shape" fill="#E0ACA6"></path>
            <path d="M707.581509,715.678832 L292.126521,715.678832 L292.126521,200.564477 C292.126521,193.090024 298.355231,186.861314 305.829684,186.861314 L694.501217,186.861314 C701.97567,186.861314 708.20438,193.090024 708.20438,200.564477 L708.20438,715.678832 L707.581509,715.678832 Z" id="Shape" fill="#111217"></path>
            <polygon id="Shape" fill="#3498DD" points="333.23601 228.593674 665.849148 228.593674 665.849148 661.489051 333.23601 661.489051"></polygon>
            <path d="M436.009732,456.564477 C436.009732,498.876745 470.310603,533.177616 512.622871,533.177616 C554.935139,533.177616 589.23601,498.876745 589.23601,456.564477 C589.23601,414.252209 554.935139,379.951338 512.622871,379.951338 C470.310603,379.951338 436.009732,414.252209 436.009732,456.564477 L436.009732,456.564477 Z" id="Shape" fill="#F7F9F9"></path>
            <path d="M459.678832,456.564477 C459.678831,475.479561 469.769908,492.957819 486.150851,502.415362 C502.531794,511.872904 522.713948,511.872904 539.094891,502.415362 C555.475834,492.957819 565.566911,475.479561 565.56691,456.564477 C565.56691,427.324292 541.863056,403.620438 512.622871,403.620438 C483.382686,403.620438 459.678832,427.324292 459.678832,456.564477 L459.678832,456.564477 Z" id="Shape" fill="#F7F9F9"></path>
            <path d="M488.953771,456.564477 C488.95377,465.020632 493.465075,472.834442 500.788321,477.06252 C508.111566,481.290598 517.134176,481.290598 524.457421,477.06252 C531.780667,472.834442 536.291972,465.020632 536.291971,456.564477 C536.291971,443.492394 525.694954,432.895377 512.622871,432.895377 C499.550788,432.895377 488.953771,443.492394 488.953771,456.564477 L488.953771,456.564477 Z" id="Shape" fill="#F7F9F9"></path>
            <path d="M483.970803,686.403893 C483.970803,691.967153 486.938766,697.107817 491.756691,699.889447 C496.574615,702.671077 502.510543,702.671077 507.328467,699.889447 C512.146392,697.107817 515.114355,691.967153 515.114355,686.403893 C515.114355,677.803839 508.142633,670.832117 499.542579,670.832117 C490.942525,670.832117 483.970803,677.803839 483.970803,686.403893 L483.970803,686.403893 Z" id="Shape" fill="#808080"></path>
            <path d="M531.931873,471.513382 C553.109489,554.978102 563.075425,624.739659 601.07056,692.009732 L653.391727,731.250608 L684.53528,713.187348 L531.931873,471.513382 L531.931873,471.513382 Z" id="Shape" fill="#111217"></path>
            <g id="72" transform="translate(334.000000, 229.000000)">
                <polygon id="Shape" fill="#3498DD" points="1.20565003 0.420652698 332.010688 0.420652698 332.010688 431.451797 1.20565003 431.451797"></polygon>
                <polygon id="Shape" fill="#348CDD" points="48.7351096 35.7041743 289.234175 35.7041743 289.234175 230.240356 48.7351096 230.240356"></polygon>
                <path d="M85.8080878,71.9413059 L85.8080878,194.956833 L253.111785,194.956833 L253.111785,71.9413059 L85.8080878,71.9413059 Z M93.4128009,81.4773938 L244.556482,81.4773938 L244.556482,183.513528 L240.754126,183.513528 L211.285861,147.276396 L190.372898,173.97744 L152.349331,127.250613 L108.622229,182.559919 L120.029299,183.513528 L93.4128009,183.513528 L93.4128009,81.4773938 L93.4128009,81.4773938 Z" id="Shape" fill="#FFFEFF"></path>
                <path d="M104.819871,115.807308 C104.819871,122.127271 109.926991,127.250613 116.226942,127.250613 C122.526893,127.250613 127.634012,122.127271 127.634012,115.807308 C127.634012,109.487346 122.526893,104.364004 116.226942,104.364004 C109.926991,104.364004 104.819871,109.487346 104.819871,115.807308 Z" id="Shape" fill="#FFFEFF"></path>
                <path d="M53.4880559,261.709443 L152.349331,261.709443 L152.349331,266.477487 L53.4880559,266.477487 L53.4880559,261.709443 Z M53.4880559,283.642443 L152.349331,283.642443 L152.349331,288.410487 L53.4880559,288.410487 L53.4880559,283.642443 Z M53.4880559,304.621836 L134.288136,304.621836 L134.288136,309.38988 L53.4880559,309.38988 L53.4880559,304.621836 Z M53.4880559,326.554837 L123.831655,326.554837 L123.831655,331.32288 L53.4880559,331.32288 L53.4880559,326.554837 Z M53.4880559,348.487837 L123.831655,348.487837 L123.831655,353.255881 L53.4880559,353.255881 L53.4880559,348.487837 Z M181.817596,261.709443 L280.678871,261.709443 L280.678871,266.477487 L181.817596,266.477487 L181.817596,261.709443 Z M181.817596,283.642443 L280.678871,283.642443 L280.678871,288.410487 L181.817596,288.410487 L181.817596,283.642443 Z M181.817596,304.621836 L262.617676,304.621836 L262.617676,309.38988 L181.817596,309.38988 L181.817596,304.621836 Z M181.817596,326.554837 L252.161196,326.554837 L252.161196,331.32288 L181.817596,331.32288 L181.817596,326.554837 Z M181.817596,348.487837 L252.161196,348.487837 L252.161196,353.255881 L181.817596,353.255881 L181.817596,348.487837 Z" id="Shape" fill="#FFFEFF"></path>
                <path d="M133.337547,383.77136 L217.939985,383.77136 L217.939985,403.797143 L133.337547,403.797143 L133.337547,383.77136 Z M0.255061083,0.420652698 L331.060099,0.420652698 L331.060099,26.1680879 L0.255061083,26.1680879 L0.255061083,0.420652698 Z" id="Shape" fill="#FEBD49"></path>
            </g>
            <path d="M866.413625,772.982968 C863.29927,733.119221 878.248175,640.311435 804.126521,594.841849 C799.766424,592.350365 796.652068,586.744525 789.177616,587.990268 C782.326034,588.613139 777.343066,580.515815 771.114355,580.515815 C691.386861,573.664233 655.26034,602.939173 655.260341,602.939173 C632.836983,566.189781 573.041363,465.907543 573.041363,465.907543 C554.978103,446.598541 522.588808,463.416059 535.046229,490.199513 C535.046229,490.199513 640.934307,687.026764 648.408759,697.615572 C656.506083,710.695864 643.425791,706.335767 641.557178,702.59854 C639.065694,698.861314 607.29927,622.248175 554.355231,638.442822 C545.635036,644.671532 543.766423,650.277372 549.995134,662.734793 C549.995134,662.734793 591.727494,717.547445 597.333333,733.742092 C602.939172,749.936739 618.510949,807.863747 702.59854,822.812652 C754.296837,832.155718 778.588808,878.248175 789.177616,911.883212 L887.591241,847.104623 C877.002433,818.452555 867.659368,790.423358 866.413625,772.982968 L866.413625,772.982968 Z M356.905109,695.746959 C356.905109,695.746959 369.36253,601.07056 291.50365,573.041363 C290.257908,563.075426 285.897811,540.652069 305.829684,531.931873 C325.761557,523.211678 358.150852,481.479318 328.253041,463.416058 C298.355231,445.352798 227.970803,495.182481 219.873479,565.56691 C211.776155,635.951338 231.085158,697.615572 253.508516,744.953771 C275.931874,792.291971 252.885645,881.985401 252.885645,881.985401 L331.990268,858.316302 L356.905109,695.746959 L356.905109,695.746959 Z" id="Shape" fill="#E0ACA6"></path>
            <polygon id="Shape" fill="#111217" points="260.360097 786.686131 382.442822 772.360097 382.442822 825.927007"></polygon>
            <polygon id="Shape" fill="#F7F9F9" points="250.394161 792.291971 262.851582 770.491484 380.574209 786.686131 384.934307 809.109489"></polygon>
            <path d="M231.085158,782.326034 L429.158151,807.240876 L419.192214,1005.31387 C340.087591,992.233577 276.554744,972.301704 211.153285,931.192214 L231.085158,782.326034 L231.085158,782.326034 Z" id="Shape" fill="#F17F69"></path>
            <path d="M383.688564,862.676399 C383.688564,873.340467 392.333499,881.985401 402.997567,881.985401 C413.661634,881.985401 422.306569,873.340467 422.306569,862.676399 C422.306569,852.012331 413.661634,843.367397 402.997567,843.367397 C392.333499,843.367397 383.688564,852.012331 383.688564,862.676399 Z" id="Shape" fill="#F7F9F9"></path>
            <path d="M763.639903,862.053528 C812.223845,825.927007 853.956205,787.931873 865.167883,754.296837 C865.167883,754.296837 868.282238,815.961071 888.214112,823.435523 C907.523114,831.532847 846.481752,851.46472 846.481752,851.46472 L763.639903,862.053528 L763.639903,862.053528 Z" id="Shape" fill="#111217"></path>
            <polygon id="Shape" fill="#F7F9F9" points="892.574209 799.766423 880.739659 769.868613 758.656934 857.07056 764.262774 888.836983"></polygon>
            <path d="M898.80292,781.194647 L741.216545,865.282238 L751.182482,953.729927 C751.182482,953.729927 878.871046,894.557178 915.620438,831.647202 L898.80292,781.194647 L898.80292,781.194647 Z" id="Shape" fill="#1B959C"></path>
            <path d="M846.481752,830.909976 C846.481752,841.574044 855.126687,850.218979 865.790755,850.218979 C876.454822,850.218979 885.099757,841.574044 885.099757,830.909976 C885.099757,820.245908 876.454822,811.600974 865.790755,811.600974 C855.126687,811.600974 846.481752,820.245908 846.481752,830.909976 L846.481752,830.909976 Z" id="Shape" fill="#F7F9F9"></path>
            <path d="M490.199513,209.284672 C490.199513,212.03669 492.430464,214.26764 495.182481,214.26764 C497.934499,214.26764 500.16545,212.03669 500.16545,209.284672 C500.16545,206.532654 497.934499,204.301704 495.182481,204.301704 C492.430464,204.301704 490.199513,206.532654 490.199513,209.284672 L490.199513,209.284672 Z" id="Shape" fill="#808080"></path>
        </g>
    </g>
</svg>